HIERARCHY
ROOT Hips
{
 OFFSET 0.000000 0.000000 0.000000
 CHANNELS 6 Xposition Yposition Zposition Yrotation Xrotation Zrotation
 JOINT Chest
 {
  OFFSET 0.000000 9.585900 0.002600
  CHANNELS 3 Yrotation Xrotation Zrotation
  JOINT Chest2
  {
   OFFSET 0.000000 9.601200 -0.005300
   CHANNELS 3 Yrotation Xrotation Zrotation
   JOINT Chest3
   {
    OFFSET 0.000000 9.561800 0.000000
    CHANNELS 3 Yrotation Xrotation Zrotation
    JOINT Chest4
    {
     OFFSET 0.000000 9.552100 0.000000
     CHANNELS 3 Yrotation Xrotation Zrotation
     JOINT Neck
     {
      OFFSET 0.000000 14.453000 0.000000
      CHANNELS 3 Yrotation Xrotation Zrotation
      JOINT Head
      {
       OFFSET 0.000000 8.936500 -0.011300
       CHANNELS 3 Yrotation Xrotation Zrotation
       End Site
       {
        OFFSET 0.000000 17.073600 -0.006000
       }
      }
     }
     JOINT RightCollar
     {
      OFFSET -2.921100 9.558500 0.000000
      CHANNELS 3 Yrotation Xrotation Zrotation
      JOINT RightShoulder
      {
       OFFSET -13.519700 0.000000 0.000000
       CHANNELS 3 Yrotation Xrotation Zrotation
       JOINT RightElbow
       {
        OFFSET 0.000000 -29.696600 0.000000
        CHANNELS 3 Yrotation Xrotation Zrotation
        JOINT RightWrist
        {
         OFFSET 0.000000 -24.004700 0.000000
         CHANNELS 3 Yrotation Xrotation Zrotation
         End Site
         {
          OFFSET 0.000000 -17.728500 0.000000
         }
        }
       }
      }
     }
     JOINT LeftCollar
     {
      OFFSET 2.921100 9.558500 0.000000
      CHANNELS 3 Yrotation Xrotation Zrotation
      JOINT LeftShoulder
      {
       OFFSET 13.519700 0.000000 0.000000
       CHANNELS 3 Yrotation Xrotation Zrotation
       JOINT LeftElbow
       {
        OFFSET 0.000000 -29.696600 0.000000
        CHANNELS 3 Yrotation Xrotation Zrotation
        JOINT LeftWrist
        {
         OFFSET 0.000000 -24.004700 0.000000
         CHANNELS 3 Yrotation Xrotation Zrotation
         End Site
         {
          OFFSET 0.000000 -17.728500 0.000000
         }
        }
       }
      }
     }
    }
   }
  }
 }
 JOINT RightHip
 {
  OFFSET -7.771700 -0.012900 -0.001300
  CHANNELS 3 Yrotation Xrotation Zrotation
  JOINT RightKnee
  {
   OFFSET 0.000000 -40.869800 0.001200
   CHANNELS 3 Yrotation Xrotation Zrotation
   JOINT RightAnkle
   {
    OFFSET 0.000000 -39.717900 0.002100
    CHANNELS 3 Yrotation Xrotation Zrotation
    JOINT RightToe
    {
     OFFSET 0.000000 -4.965400 11.033500
     CHANNELS 3 Yrotation Xrotation Zrotation
     End Site
     {
      OFFSET 0.000000 -1.423100 5.872300
     }
    }
   }
  }
 }
 JOINT LeftHip
 {
  OFFSET 7.771700 -0.012900 -0.001300
  CHANNELS 3 Yrotation Xrotation Zrotation
  JOINT LeftKnee
  {
   OFFSET 0.000000 -40.869800 0.001200
   CHANNELS 3 Yrotation Xrotation Zrotation
   JOINT LeftAnkle
   {
    OFFSET 0.000000 -39.717900 0.002100
    CHANNELS 3 Yrotation Xrotation Zrotation
    JOINT LeftToe
    {
     OFFSET 0.000000 -4.965400 11.033500
     CHANNELS 3 Yrotation Xrotation Zrotation
     End Site
     {
      OFFSET 0.000000 -1.423100 5.872300
     }
    }
   }
  }
 }
}
MOTION
Frames: 14
Frame Time: 0.008333
-17.743327 60.732852 29.709689 161.311455 -16.344555 1.836054 1.637832 13.372209 1.196532 0.116622 1.093488 0.086094 0.192907 1.864358 0.148349 1.406332 12.073681 1.091438 4.971376 17.359052 -0.951934 5.549739 -7.332691 -2.167691 4.986169 6.055775 -2.390590 -7.188694 -14.934487 -7.158848 -77.210553 -48.744240 99.703286 -9.316531 1.067533 -30.559585 -5.389027 0.834402 -5.299912 16.183089 -4.669968 1.142916 59.003512 -60.302126 -85.718518 -3.261964 -1.385271 2.893863 -0.400563 -52.779920 -0.739901 -22.399396 70.505057 -17.599115 1.864334 -4.646019 -2.721826 0.020240 -0.079540 -0.001585 7.773398 -52.561893 0.343694 25.421288 67.300515 24.928680 -22.967048 -17.073805 0.205251 0.024084 0.139971 -0.056307
-17.746666 60.734140 29.707607 161.312291 -16.338783 1.846839 1.624908 13.380757 1.183315 0.122311 1.087225 0.086278 0.190566 1.864586 0.148071 1.398213 12.075897 1.090339 4.981891 17.371841 -0.960131 5.554259 -7.336398 -2.171605 4.991566 6.057400 -2.396495 -7.177764 -14.936894 -7.160920 -77.180384 -48.744111 99.664941 -9.316707 1.069859 -30.562038 -5.375998 0.835179 -5.308478 16.191051 -4.673499 1.142592 59.019671 -60.311820 -85.732773 -3.270471 -1.382034 2.891379 -0.385256 -52.783774 -0.765233 -22.399526 70.501879 -17.589888 1.867780 -4.645962 -2.727541 0.022496 -0.079199 0.002129 7.793072 -52.564521 0.326657 25.421428 67.296506 24.928089 -23.069254 -17.082053 0.218448 0.000162 0.129241 -0.046836
-17.749532 60.735301 29.705922 161.311197 -16.332705 1.855538 1.621462 13.378120 1.173917 0.112609 1.096776 0.085476 0.199961 1.855680 0.148768 1.392442 12.082955 1.093446 4.988132 17.372578 -0.969269 5.559842 -7.328696 -2.177196 4.996590 6.058025 -2.408774 -7.172279 -14.938625 -7.157970 -77.151020 -48.746100 99.626447 -9.315247 1.057378 -30.553869 -5.369579 0.827802 -5.313721 16.197790 -4.673015 1.133205 59.025523 -60.323851 -85.731208 -3.279128 -1.375457 2.894285 -0.367693 -52.787936 -0.795546 -22.369593 70.506891 -17.542493 1.868399 -4.649833 -2.737730 0.024855 -0.078089 0.002350 7.809311 -52.567566 0.315908 25.424576 67.289464 24.926259 -23.162394 -17.079601 0.230029 -0.018595 0.114482 -0.038962
-17.752715 60.736448 29.704206 161.318326 -16.327704 1.864971 1.610800 13.376098 1.161858 0.111006 1.096267 0.084519 0.200990 1.856753 0.149615 1.372081 12.094266 1.087193 5.009087 17.368553 -0.972520 5.568311 -7.304967 -2.190077 5.016107 6.054743 -2.414028 -7.164956 -14.931341 -7.160515 -77.147600 -48.745317 99.617366 -9.309605 1.050180 -30.554186 -5.352175 0.820490 -5.315002 16.200223 -4.671269 1.115688 59.045896 -60.348672 -85.705634 -3.294752 -1.351102 2.895241 -0.351470 -52.793085 -0.829634 -22.339151 70.514918 -17.494309 1.860501 -4.651301 -2.748762 0.032268 -0.080272 0.003996 7.819341 -52.570837 0.300280 25.429250 67.282231 24.925186 -23.244908 -17.060328 0.235040 -0.035847 0.082542 -0.025720
-17.754179 60.737209 29.704212 161.321192 -16.316732 1.863946 1.600278 13.368252 1.156429 0.114748 1.094787 0.086188 0.195764 1.858663 0.147693 1.378674 12.097461 1.085141 5.007899 17.398936 -0.988646 5.580156 -7.308844 -2.192259 5.017066 6.055554 -2.414045 -7.173369 -14.918395 -7.161411 -77.155686 -48.742863 99.640342 -9.304804 1.060067 -30.576637 -5.346584 0.822941 -5.313654 16.199103 -4.678336 1.111286 59.037095 -60.346081 -85.675674 -3.303807 -1.353015 2.879613 -0.350588 -52.804129 -0.839696 -22.313344 70.519156 -17.459866 1.863363 -4.647281 -2.750235 0.030140 -0.083998 0.002234 7.816929 -52.579236 0.299573 25.442858 67.274314 24.928230 -23.238734 -17.049380 0.237284 -0.031309 0.073518 -0.021342
-17.753684 60.737978 29.704712 161.316455 -16.306916 1.854498 1.605727 13.365256 1.163628 0.114653 1.094781 0.086159 0.197830 1.866616 0.142534 1.381976 12.086218 1.090296 5.010449 17.414055 -0.997504 5.580569 -7.296538 -2.196848 5.017683 6.072769 -2.417393 -7.177772 -14.920082 -7.161878 -77.144242 -48.740080 99.623676 -9.294234 1.056298 -30.573023 -5.345062 0.842745 -5.315184 16.195946 -4.699567 1.104067 59.009268 -60.332876 -85.623742 -3.327628 -1.339458 2.881750 -0.362765 -52.813071 -0.832974 -22.271061 70.520238 -17.399815 1.865063 -4.636956 -2.766489 0.030489 -0.089715 0.002418 7.808511 -52.585857 0.315157 25.456072 67.271408 24.928931 -23.172684 -17.050136 0.243134 -0.011559 0.073615 -0.020607
-17.754166 60.739351 29.703073 161.310731 -16.307707 1.856569 1.611737 13.373479 1.158229 0.115402 1.095098 0.085906 0.196936 1.866612 0.145141 1.386884 12.082781 1.089182 5.009506 17.419047 -0.999064 5.587804 -7.259064 -2.215919 5.016123 6.079069 -2.417210 -7.195935 -14.899026 -7.162544 -77.115047 -48.742373 99.598719 -9.288005 1.040044 -30.555268 -5.347461 0.854867 -5.314701 16.194022 -4.710263 1.075367 58.964655 -60.342766 -85.563188 -3.342162 -1.319989 2.904493 -0.359445 -52.811949 -0.837873 -22.254798 70.521522 -17.378848 1.870498 -4.632026 -2.769844 0.028112 -0.093112 0.001619 7.820201 -52.581436 0.317957 25.442921 67.276782 24.912798 -23.188817 -17.059240 0.250501 -0.010662 0.076228 -0.016632
-17.755989 60.740608 29.701694 161.302002 -16.303446 1.868386 1.618882 13.378301 1.146998 0.115887 1.095037 0.085468 0.193205 1.864767 0.146491 1.393808 12.090530 1.083180 5.008891 17.413592 -0.997892 5.587860 -7.253520 -2.217839 5.013886 6.069776 -2.413537 -7.206153 -14.890322 -7.163831 -77.105312 -48.741158 99.600875 -9.290343 1.060438 -30.577050 -5.354005 0.851288 -5.307842 16.195037 -4.719228 1.066391 58.950549 -60.343633 -85.542447 -3.345060 -1.273653 2.939496 -0.341482 -52.816711 -0.857091 -22.247019 70.522575 -17.366363 1.875857 -4.629372 -2.770166 0.027827 -0.093605 -0.000068 7.847145 -52.580859 0.305591 25.423601 67.280929 24.896061 -23.252389 -17.070822 0.256717 -0.023420 0.079530 -0.013743
-17.755852 60.741609 29.701802 161.287641 -16.292592 1.869912 1.627367 13.373562 1.148005 0.114976 1.102600 0.083928 0.199209 1.859436 0.146407 1.395094 12.085946 1.083859 5.010398 17.446679 -1.015002 5.589813 -7.229548 -2.235120 5.014215 6.072894 -2.416790 -7.213680 -14.886598 -7.163701 -77.106681 -48.738456 99.611572 -9.293359 1.069333 -30.586361 -5.356073 0.851700 -5.307714 16.196471 -4.721238 1.057876 58.862950 -60.262675 -85.420042 -3.421507 -1.265232 2.932509 -0.338155 -52.823937 -0.854026 -22.189843 70.523867 -17.302538 1.868722 -4.630466 -2.777717 0.030689 -0.090174 -0.000544 7.864683 -52.588133 0.302582 25.422145 67.279463 24.897921 -23.254184 -17.080381 0.263051 -0.025360 0.082384 -0.018255
-17.753883 60.742969 29.701076 161.283617 -16.288724 1.862078 1.631110 13.376236 1.156103 0.118568 1.105137 0.081239 0.199776 1.857789 0.147447 1.395189 12.082350 1.085143 5.011909 17.452468 -1.018909 5.589051 -7.210838 -2.246297 5.019985 6.080438 -2.421285 -7.224128 -14.894254 -7.157734 -77.086933 -48.741176 99.583725 -9.294390 1.065604 -30.576758 -5.357105 0.862113 -5.311415 16.188000 -4.735028 1.042998 58.781179 -60.196304 -85.315189 -3.439642 -1.165459 2.973817 -0.354085 -52.823117 -0.842133 -22.167834 70.522346 -17.264283 1.867942 -4.630185 -2.784638 0.037834 -0.090339 -0.007430 7.863312 -52.593024 0.311962 25.405221 67.288371 24.882929 -23.222353 -17.087073 0.276776 -0.021844 0.080821 -0.026549
-17.752073 60.744602 29.699228 161.274864 -16.289019 1.861067 1.640828 13.385964 1.155088 0.119598 1.100747 0.084049 0.199581 1.855740 0.148381 1.413466 12.093684 1.086457 4.998441 17.448287 -1.021246 5.589804 -7.193806 -2.258209 5.006042 6.073966 -2.421473 -7.235249 -14.884785 -7.150727 -77.089184 -48.743313 99.586330 -9.289053 1.062252 -30.566203 -5.372633 0.876325 -5.319019 16.174475 -4.764574 1.023803 58.691277 -60.138543 -85.203346 -3.452769 -1.093066 3.007682 -0.359268 -52.820463 -0.831824 -22.157421 70.522095 -17.253024 1.870147 -4.629895 -2.786602 0.036339 -0.091151 -0.006087 7.871311 -52.591812 0.320621 25.397322 67.297713 24.872724 -23.216840 -17.094516 0.288976 -0.021140 0.079666 -0.030824
-17.750189 60.745945 29.698119 161.265877 -16.283150 1.860757 1.653024 13.389102 1.155278 0.118803 1.096610 0.085616 0.202786 1.861426 0.146949 1.423629 12.096034 1.088114 4.992265 17.454880 -1.028037 5.590270 -7.193850 -2.262058 4.995710 6.067030 -2.421506 -7.234139 -14.867517 -7.149284 -77.109156 -48.747758 99.599699 -9.285318 1.067398 -30.559660 -5.380904 0.876963 -5.320720 16.163406 -4.778871 1.019948 58.599282 -60.059520 -85.097745 -3.473139 -1.046974 3.039756 -0.360878 -52.821713 -0.829079 -22.139118 70.520723 -17.229556 1.878709 -4.631996 -2.789216 0.029774 -0.088753 -0.006282 7.874869 -52.596970 0.334728 25.413391 67.302558 24.881673 -23.230422 -17.100922 0.299568 -0.018778 0.078403 -0.033657
-17.746939 60.747434 29.696229 161.263491 -16.283171 1.854772 1.669733 13.411397 1.157642 0.120266 1.097859 0.085148 0.196768 1.851002 0.151696 1.430421 12.099069 1.086390 4.993046 17.459088 -1.033767 5.581182 -7.209820 -2.253467 4.993863 6.055329 -2.419548 -7.241944 -14.867289 -7.145667 -77.097160 -48.749952 99.582459 -9.280820 1.074953 -30.570866 -5.390748 0.875394 -5.318736 16.149556 -4.786685 1.015098 58.514551 -59.979261 -85.000395 -3.493005 -1.003996 3.075014 -0.373210 -52.818897 -0.818635 -22.122072 70.522162 -17.203899 1.878719 -4.630464 -2.795607 0.030062 -0.091747 -0.006481 7.863099 -52.596426 0.359922 25.415251 67.310717 24.872659 -23.220520 -17.108759 0.323707 -0.008455 0.077669 -0.042620
-17.744424 60.748461 29.695001 161.261068 -16.276763 1.854052 1.676169 13.412782 1.156361 0.123152 1.101097 0.083886 0.206494 1.864696 0.144957 1.445357 12.104778 1.076893 4.986759 17.458782 -1.029438 5.573412 -7.215606 -2.246657 4.973111 6.026034 -2.400095 -7.242020 -14.866482 -7.142428 -77.067380 -48.762930 99.544397 -9.283429 1.056078 -30.562190 -5.418172 0.858551 -5.294119 16.125353 -4.781574 1.003276 58.447458 -59.905928 -84.914203 -3.512429 -0.959384 3.116923 -0.378619 -52.823553 -0.814552 -22.109660 70.521774 -17.187195 1.881299 -4.626709 -2.800058 0.026730 -0.094834 -0.005631 7.861449 -52.598345 0.367085 25.401995 67.316198 24.851665 -23.202754 -17.119890 0.380425 -0.001452 0.079112 -0.063727
